<mxfile host="Electron" agent="Mozilla/5.0 (Windows NT 10.0; Win64; x64) AppleWebKit/537.36 (KHTML, like Gecko) draw.io/24.7.17 Chrome/128.0.6613.36 Electron/32.0.1 Safari/537.36" version="24.7.17">
  <diagram name="Pagina-1" id="QmyNFcJCreV784vSNRjc">
    <mxGraphModel dx="1050" dy="629" grid="1" gridSize="10" guides="1" tooltips="1" connect="1" arrows="1" fold="1" page="1" pageScale="1" pageWidth="827" pageHeight="1169" math="0" shadow="0">
      <root>
        <mxCell id="0" />
        <mxCell id="1" parent="0" />
        <mxCell id="exPfVftckm-STMGVM8SJ-1" value="Film" style="swimlane;childLayout=stackLayout;horizontal=1;startSize=50;horizontalStack=0;rounded=1;fontSize=14;fontStyle=0;strokeWidth=2;resizeParent=0;resizeLast=1;shadow=0;dashed=0;align=center;arcSize=4;whiteSpace=wrap;html=1;" vertex="1" parent="1">
          <mxGeometry x="120" y="120" width="160" height="120" as="geometry" />
        </mxCell>
        <mxCell id="exPfVftckm-STMGVM8SJ-2" value="&lt;b&gt;&lt;span style=&quot;text-decoration-line: underline;&quot;&gt;Titolo&lt;/span&gt;&amp;nbsp;(PK)&lt;/b&gt;&lt;div&gt;Anno&lt;/div&gt;&lt;div&gt;CasaProd&lt;/div&gt;" style="align=left;strokeColor=none;fillColor=none;spacingLeft=4;fontSize=12;verticalAlign=top;resizable=0;rotatable=0;part=1;html=1;" vertex="1" parent="exPfVftckm-STMGVM8SJ-1">
          <mxGeometry y="50" width="160" height="70" as="geometry" />
        </mxCell>
        <mxCell id="exPfVftckm-STMGVM8SJ-3" value="Artista" style="swimlane;childLayout=stackLayout;horizontal=1;startSize=50;horizontalStack=0;rounded=1;fontSize=14;fontStyle=0;strokeWidth=2;resizeParent=0;resizeLast=1;shadow=0;dashed=0;align=center;arcSize=4;whiteSpace=wrap;html=1;" vertex="1" parent="1">
          <mxGeometry x="640" y="120" width="160" height="120" as="geometry" />
        </mxCell>
        <mxCell id="exPfVftckm-STMGVM8SJ-4" value="&lt;u style=&quot;font-weight: bold;&quot;&gt;Codice&lt;/u&gt;&lt;b&gt;&amp;nbsp;(PK)&lt;/b&gt;&lt;div&gt;Nome&lt;/div&gt;&lt;div&gt;Cognome&lt;/div&gt;" style="align=left;strokeColor=none;fillColor=none;spacingLeft=4;fontSize=12;verticalAlign=top;resizable=0;rotatable=0;part=1;html=1;" vertex="1" parent="exPfVftckm-STMGVM8SJ-3">
          <mxGeometry y="50" width="160" height="70" as="geometry" />
        </mxCell>
        <mxCell id="exPfVftckm-STMGVM8SJ-5" value="" style="edgeStyle=entityRelationEdgeStyle;fontSize=12;html=1;endArrow=ERzeroToOne;startArrow=ERoneToMany;rounded=0;entryX=0;entryY=0;entryDx=0;entryDy=0;endSize=12;startSize=12;endFill=0;" edge="1" parent="1">
          <mxGeometry width="100" height="100" relative="1" as="geometry">
            <mxPoint x="280" y="200" as="sourcePoint" />
            <mxPoint x="640" y="200" as="targetPoint" />
          </mxGeometry>
        </mxCell>
        <mxCell id="exPfVftckm-STMGVM8SJ-6" value="Regia" style="text;html=1;align=center;verticalAlign=middle;whiteSpace=wrap;rounded=0;" vertex="1" parent="1">
          <mxGeometry x="430" y="200" width="60" height="30" as="geometry" />
        </mxCell>
        <mxCell id="exPfVftckm-STMGVM8SJ-7" value="" style="edgeStyle=entityRelationEdgeStyle;fontSize=12;html=1;endArrow=ERzeroToMany;startArrow=ERzeroToMany;rounded=0;endSize=12;startSize=12;endFill=0;" edge="1" parent="1">
          <mxGeometry width="100" height="100" relative="1" as="geometry">
            <mxPoint x="280" y="160" as="sourcePoint" />
            <mxPoint x="640" y="160" as="targetPoint" />
            <Array as="points">
              <mxPoint x="520" y="110" />
            </Array>
          </mxGeometry>
        </mxCell>
        <mxCell id="exPfVftckm-STMGVM8SJ-8" value="Interpretazione" style="text;html=1;align=center;verticalAlign=middle;whiteSpace=wrap;rounded=0;" vertex="1" parent="1">
          <mxGeometry x="430" y="130" width="60" height="30" as="geometry" />
        </mxCell>
        <mxCell id="exPfVftckm-STMGVM8SJ-9" value="Cinema" style="swimlane;childLayout=stackLayout;horizontal=1;startSize=50;horizontalStack=0;rounded=1;fontSize=14;fontStyle=0;strokeWidth=2;resizeParent=0;resizeLast=1;shadow=0;dashed=0;align=center;arcSize=4;whiteSpace=wrap;html=1;" vertex="1" parent="1">
          <mxGeometry x="120" y="390" width="160" height="120" as="geometry" />
        </mxCell>
        <mxCell id="exPfVftckm-STMGVM8SJ-10" value="&lt;u style=&quot;font-weight: bold;&quot;&gt;Nome&lt;/u&gt;&amp;nbsp;&lt;b style=&quot;&quot;&gt;(PK)&lt;/b&gt;&lt;div&gt;Tel&lt;/div&gt;&lt;div&gt;Orario&lt;/div&gt;&lt;div&gt;Indirizzo&lt;/div&gt;" style="align=left;strokeColor=none;fillColor=none;spacingLeft=4;fontSize=12;verticalAlign=top;resizable=0;rotatable=0;part=1;html=1;" vertex="1" parent="exPfVftckm-STMGVM8SJ-9">
          <mxGeometry y="50" width="160" height="70" as="geometry" />
        </mxCell>
        <mxCell id="exPfVftckm-STMGVM8SJ-12" value="" style="endArrow=ERzeroToOne;html=1;rounded=0;entryX=0.5;entryY=1;entryDx=0;entryDy=0;exitX=0.5;exitY=0;exitDx=0;exitDy=0;startArrow=ERmandOne;startFill=0;endFill=0;endSize=12;startSize=12;" edge="1" parent="1" source="exPfVftckm-STMGVM8SJ-9" target="exPfVftckm-STMGVM8SJ-2">
          <mxGeometry width="50" height="50" relative="1" as="geometry">
            <mxPoint x="175" y="340" as="sourcePoint" />
            <mxPoint x="225" y="290" as="targetPoint" />
          </mxGeometry>
        </mxCell>
        <mxCell id="exPfVftckm-STMGVM8SJ-13" value="Città" style="swimlane;childLayout=stackLayout;horizontal=1;startSize=50;horizontalStack=0;rounded=1;fontSize=14;fontStyle=0;strokeWidth=2;resizeParent=0;resizeLast=1;shadow=0;dashed=0;align=center;arcSize=4;whiteSpace=wrap;html=1;" vertex="1" parent="1">
          <mxGeometry x="510" y="390" width="160" height="120" as="geometry" />
        </mxCell>
        <mxCell id="exPfVftckm-STMGVM8SJ-14" value="&lt;b style=&quot;text-decoration-line: underline;&quot;&gt;Codice&lt;/b&gt; &lt;b&gt;(PK)&lt;/b&gt;&lt;div&gt;Nome&lt;/div&gt;" style="align=left;strokeColor=none;fillColor=none;spacingLeft=4;fontSize=12;verticalAlign=top;resizable=0;rotatable=0;part=1;html=1;" vertex="1" parent="exPfVftckm-STMGVM8SJ-13">
          <mxGeometry y="50" width="160" height="70" as="geometry" />
        </mxCell>
        <mxCell id="exPfVftckm-STMGVM8SJ-15" value="" style="edgeStyle=entityRelationEdgeStyle;fontSize=12;html=1;endArrow=ERzeroToOne;startArrow=ERoneToMany;rounded=0;entryX=-0.005;entryY=0.41;entryDx=0;entryDy=0;entryPerimeter=0;endFill=0;endSize=12;startSize=12;" edge="1" parent="1" target="exPfVftckm-STMGVM8SJ-13">
          <mxGeometry width="100" height="100" relative="1" as="geometry">
            <mxPoint x="280" y="440" as="sourcePoint" />
            <mxPoint x="380" y="340" as="targetPoint" />
          </mxGeometry>
        </mxCell>
        <mxCell id="exPfVftckm-STMGVM8SJ-16" value="&lt;span style=&quot;font-weight: 700; text-wrap: nowrap;&quot;&gt;Film (&lt;/span&gt;&lt;u style=&quot;font-weight: 700; text-wrap: nowrap;&quot;&gt;Titolo&lt;/u&gt;&lt;span style=&quot;font-weight: 700; text-wrap: nowrap;&quot;&gt;, Anno, CasaProd, Codice(Artista)*)&lt;/span&gt;&lt;div&gt;&lt;span style=&quot;font-weight: 700; text-wrap: nowrap;&quot;&gt;Artista (&lt;/span&gt;&lt;u style=&quot;font-weight: 700; text-wrap: nowrap;&quot;&gt;Codice&lt;/u&gt;&lt;span style=&quot;font-weight: 700; text-wrap: nowrap;&quot;&gt;, Nome, Cognome)&lt;/span&gt;&lt;span style=&quot;font-weight: 700; text-wrap: nowrap;&quot;&gt;&lt;br&gt;&lt;/span&gt;&lt;/div&gt;&lt;div&gt;&lt;span style=&quot;font-weight: 700; text-wrap: nowrap;&quot;&gt;Interpretazione (&lt;/span&gt;&lt;u style=&quot;font-weight: 700; text-wrap: nowrap;&quot;&gt;Film&lt;/u&gt;&lt;span style=&quot;font-weight: 700; text-wrap: nowrap;&quot;&gt;,&amp;nbsp;&lt;/span&gt;&lt;u style=&quot;font-weight: 700; text-wrap: nowrap;&quot;&gt;Artista&lt;/u&gt;&lt;span style=&quot;font-weight: 700; text-wrap: nowrap;&quot;&gt;)&lt;/span&gt;&lt;span style=&quot;font-weight: 700; text-wrap: nowrap;&quot;&gt;&lt;br&gt;&lt;/span&gt;&lt;/div&gt;&lt;div&gt;&lt;span style=&quot;font-weight: 700; text-wrap: nowrap;&quot;&gt;Cinema (&lt;/span&gt;&lt;u style=&quot;font-weight: 700; text-wrap: nowrap;&quot;&gt;Nome&lt;/u&gt;&lt;span style=&quot;font-weight: 700; text-wrap: nowrap;&quot;&gt;, Tel, Orario, Indirizzo, Titolo(Film)*, Codice(Città)*)&lt;/span&gt;&lt;span style=&quot;font-weight: 700; text-wrap: nowrap;&quot;&gt;&lt;br&gt;&lt;/span&gt;&lt;/div&gt;&lt;div&gt;&lt;span style=&quot;font-weight: 700; text-wrap: nowrap;&quot;&gt;Città (&lt;/span&gt;&lt;u style=&quot;font-weight: 700; text-wrap: nowrap;&quot;&gt;Codice&lt;/u&gt;&lt;span style=&quot;font-weight: 700; text-wrap: nowrap;&quot;&gt;, Nome)&lt;/span&gt;&lt;span style=&quot;font-weight: 700; text-wrap: nowrap;&quot;&gt;&lt;br&gt;&lt;/span&gt;&lt;/div&gt;" style="text;html=1;align=center;verticalAlign=middle;whiteSpace=wrap;rounded=0;" vertex="1" parent="1">
          <mxGeometry x="260" y="585" width="340" height="30" as="geometry" />
        </mxCell>
      </root>
    </mxGraphModel>
  </diagram>
</mxfile>
